<?xml version="1.0" encoding="utf-8"?>
<!-- Generator: Adobe Illustrator 16.0.0, SVG Export Plug-In . SVG Version: 6.00 Build 0)  -->
<!DOCTYPE svg PUBLIC "-//W3C//DTD SVG 1.1//EN" "http://www.w3.org/Graphics/SVG/1.1/DTD/svg11.dtd">
<svg version="1.1" id="Ebene_1" xmlns="http://www.w3.org/2000/svg" xmlns:xlink="http://www.w3.org/1999/xlink" x="0px" y="0px"
	 width="441.145px" height="232.066px" viewBox="0 0 441.145 232.066" enable-background="new 0 0 441.145 232.066"
	 xml:space="preserve">
<path fill="#4C565C" d="M128.063,224.332c-0.441,0.221-2.161,1.152-4.175,1.152c-3.119,0-3.782-2.479-3.782-4.887
	c0-3.83,1.621-9.405,5.6-9.405c1.964,0,2.823,1.229,2.823,2.456c0,0.271-0.049,0.591-0.098,0.835h2.187
	c0.023-0.295,0.098-0.662,0.098-1.007c0-1.988-1.522-3.88-4.642-3.88c-5.869,0-8.03,6.114-8.03,11.148
	c0,3.536,1.203,6.336,5.524,6.336c2.21,0,3.536-0.59,4.102-0.835L128.063,224.332L128.063,224.332z"/>
<path fill="#4C565C" d="M132.68,226.812h1.744l0.762-3.978c0.491-2.506,1.892-6.36,4.346-6.36c0.812,0,1.352,0.54,1.352,1.399
	c0,0.54-0.098,1.375-0.196,1.965l-1.351,6.974h1.744l1.448-7.539c0.123-0.589,0.222-1.252,0.222-1.792
	c0-1.498-0.935-2.628-2.358-2.628c-2.308,0-3.266,1.4-4.125,2.652l-0.049-0.049l1.498-7.589h-1.744L132.68,226.812L132.68,226.812z"
	/>
<path fill="#4C565C" d="M147.323,226.812h1.744l2.283-11.688h-1.744L147.323,226.812L147.323,226.812z M149.951,212.077h2.21
	l0.417-2.21h-2.21L149.951,212.077L149.951,212.077z"/>
<path fill="#4C565C" d="M155.357,226.812h1.744l0.835-4.32c0.368-2.015,1.18-5.846,5.01-5.846l0.345-1.793
	c-2.333,0-3.585,1.057-4.348,2.578l-0.049-0.049l0.467-2.259h-1.743L155.357,226.812L155.357,226.812z"/>
<path fill="#4C565C" d="M171.812,226.812h1.744l2.333-11.688h-1.744l-0.81,3.978c-0.491,2.505-1.893,6.361-4.323,6.361
	c-0.786,0-1.35-0.541-1.35-1.376c0-0.564,0.072-1.399,0.195-1.989l1.375-6.974h-1.744l-1.473,7.538
	c-0.123,0.59-0.221,1.253-0.221,1.793c0,1.498,0.933,2.628,2.357,2.628c2.283,0,3.218-1.399,4.076-2.652l0.049,0.049
	L171.812,226.812L171.812,226.812z"/>
<path fill="#4C565C" d="M179.848,226.812h1.744l0.835-4.32c0.369-2.015,1.179-5.846,5.01-5.846l0.343-1.793
	c-2.333,0-3.585,1.057-4.347,2.578l-0.049-0.049l0.467-2.259h-1.744L179.848,226.812L179.848,226.812z"/>
<path fill="#4C565C" d="M200.06,215.123h-1.744l-0.343,1.842h-0.049c-0.271-0.786-1.13-2.112-2.849-2.112
	c-3.414,0-5.083,4.494-5.083,7.883c0,2.383,1.056,4.076,2.873,4.076c2.087,0,3.045-1.326,3.512-2.062l0.049,0.049l-0.393,2.014
	c-0.491,2.333-1.399,3.414-4.225,3.414c-1.301,0-2.309-0.441-2.75-0.663l-0.319,1.67c0.368,0.073,1.548,0.394,3.07,0.394
	c4.199,0,5.402-2.038,5.967-4.813L200.06,215.123L200.06,215.123z M191.907,222.539c0-1.498,0.736-6.286,3.29-6.286
	c1.303,0,2.112,1.325,2.112,3.118c0,2.479-1.301,6.041-3.731,6.041C192.275,225.412,191.907,223.914,191.907,222.539
	L191.907,222.539z"/>
<path fill="#4C565C" d="M203.991,226.812h1.743l2.284-11.688h-1.744L203.991,226.812L203.991,226.812z M206.618,212.077h2.21
	l0.418-2.21h-2.21L206.618,212.077L206.618,212.077z"/>
<path fill="#4C565C" d="M219.908,225.364c-0.614,0.195-1.253,0.318-1.892,0.318c-2.651,0-3.831-1.302-3.831-3.954
	c0-0.59,0.099-1.228,0.222-1.816h6.776c0.147-0.54,0.246-1.154,0.246-1.743c0-1.94-1.474-3.315-3.635-3.315
	c-3.904,0-5.525,3.855-5.525,7.344c0,3.88,2.31,4.887,4.862,4.887c0.835,0,1.694-0.147,2.505-0.344L219.908,225.364L219.908,225.364
	z M214.726,218.536c0.368-0.908,1.08-2.283,2.971-2.283c1.229,0,1.989,0.712,1.989,1.841c0,0.147-0.023,0.295-0.049,0.442H214.726
	L214.726,218.536z"/>
<path fill="#4C565C" d="M238.891,226.812h1.742l2.334-11.688h-1.744l-0.811,3.978c-0.49,2.505-1.892,6.361-4.322,6.361
	c-0.785,0-1.351-0.541-1.351-1.376c0-0.564,0.072-1.399,0.195-1.989l1.375-6.974h-1.742l-1.475,7.538
	c-0.121,0.59-0.221,1.253-0.221,1.793c0,1.498,0.934,2.628,2.356,2.628c2.283,0,3.217-1.399,4.076-2.652l0.051,0.049
	L238.891,226.812L238.891,226.812z"/>
<path fill="#4C565C" d="M246.926,226.812h1.744l0.762-3.978c0.49-2.506,1.891-6.36,4.346-6.36c0.812,0,1.353,0.54,1.353,1.399
	c0,0.54-0.099,1.375-0.221,1.965l-1.353,6.974h1.744l1.473-7.539c0.101-0.589,0.224-1.252,0.224-1.792
	c0-1.498-0.935-2.628-2.359-2.628c-2.307,0-3.266,1.4-4.125,2.652l-0.049-0.049l0.467-2.333h-1.744L246.926,226.812L246.926,226.812
	z"/>
<path fill="#4C565C" d="M267.66,226.812h1.741l3.291-16.943h-1.743l-1.351,7.072h-0.049c-0.344-0.934-1.229-2.088-2.85-2.088
	c-3.535,0-5.156,4.788-5.156,8.179c0,2.356,1.031,4.052,3.143,4.052c2.039,0,2.775-1.252,3.291-2.21l0.049,0.049L267.66,226.812
	L267.66,226.812z M263.461,222.784c0-1.694,0.785-6.531,3.34-6.531c1.326,0,2.135,1.275,2.135,3.118
	c0,2.651-1.274,6.312-3.633,6.312C263.754,225.683,263.461,224.185,263.461,222.784L263.461,222.784z"/>
<polygon fill="#4C565C" points="283.035,226.812 284.9,226.812 288.191,209.867 286.326,209.867 "/>
<path fill="#4C565C" d="M291.336,226.812h1.744l0.762-3.978c0.49-2.506,1.793-6.36,4.125-6.36c0.762,0,1.277,0.564,1.277,1.448
	c0,0.541-0.173,1.351-0.271,1.916l-1.352,6.974h1.744l0.76-3.978c0.492-2.506,1.793-6.36,4.127-6.36
	c0.735,0,1.252,0.564,1.252,1.448c0,0.663-0.123,1.302-0.246,1.916l-1.35,6.974h1.741l1.449-7.539
	c0.1-0.638,0.271-1.398,0.271-1.915c0-1.398-0.858-2.505-2.26-2.505c-2.26,0-3.192,1.375-4.026,2.628h-0.049
	c0-1.646-0.859-2.628-2.234-2.628c-2.162,0-3.07,1.4-3.881,2.652l-0.049-0.049l0.467-2.333h-1.744L291.336,226.812L291.336,226.812z
	"/>
<path fill="#4C565C" d="M310.838,232.067h1.743l1.351-7.072h0.049c0.344,0.934,1.229,2.088,2.85,2.088
	c3.562,0,5.156-4.789,5.156-8.179c0-2.356-1.006-4.052-3.143-4.052c-2.039,0-2.775,1.252-3.291,2.21l-0.049-0.049l0.366-1.891
	h-1.741L310.838,232.067L310.838,232.067z M314.596,222.563c0-2.651,1.252-6.311,3.635-6.311c1.547,0,1.842,1.497,1.842,2.896
	c0,1.694-0.787,6.532-3.364,6.532C315.406,225.683,314.596,224.406,314.596,222.563L314.596,222.563z"/>
<polygon fill="#4C565C" points="325.941,226.812 327.686,226.812 330.977,209.867 329.232,209.867 "/>
<path fill="#4C565C" d="M340.189,226.812h1.742l2.26-11.688h-1.744l-0.317,1.816h-0.05c-0.344-0.934-1.229-2.088-2.85-2.088
	c-3.535,0-5.156,4.788-5.156,8.179c0,2.356,1.031,4.052,3.144,4.052c2.039,0,2.774-1.252,3.291-2.21l0.049,0.049L340.189,226.812
	L340.189,226.812z M335.99,222.784c0-1.694,0.785-6.531,3.34-6.531c1.326,0,2.136,1.275,2.136,3.118
	c0,2.651-1.275,6.312-3.634,6.312C336.282,225.683,335.99,224.185,335.99,222.784L335.99,222.784z"/>
<path fill="#4C565C" d="M348.023,226.812h1.744l0.762-3.978c0.49-2.506,1.892-6.36,4.347-6.36c0.811,0,1.352,0.54,1.352,1.399
	c0,0.54-0.1,1.375-0.221,1.965l-1.353,6.974h1.744l1.473-7.539c0.099-0.589,0.222-1.252,0.222-1.792
	c0-1.498-0.935-2.628-2.357-2.628c-2.309,0-3.266,1.4-4.125,2.652l-0.049-0.049l0.467-2.333h-1.744L348.023,226.812L348.023,226.812
	z"/>
<path fill="#4C565C" d="M368.34,225.535c-0.369,0.098-0.763,0.146-1.131,0.146c-1.031,0-1.57-0.467-1.57-1.376
	c0-0.44,0.221-1.547,0.367-2.308l1.057-5.501h3.119l0.27-1.375h-3.119l0.714-3.782l-1.939,1.056l-0.518,2.728h-1.892l-0.27,1.375
	h1.891l-1.277,6.604c-0.098,0.491-0.172,1.007-0.172,1.498c0,2.333,1.941,2.48,3.021,2.48c0.393,0,0.785-0.049,1.154-0.123
	L368.34,225.535L368.34,225.535z"/>
<path fill="#4C565C" d="M377.129,227.082c4.348,0,5.895-4.248,5.895-8.006c0-2.727-1.424-4.225-3.904-4.225
	c-4.52,0-6.018,4.42-6.018,7.933C373.102,225.781,374.797,227.082,377.129,227.082L377.129,227.082z M375.018,222.588
	c0-2.604,0.957-6.335,3.881-6.335c1.914,0,2.209,1.694,2.209,3.19c0,2.506-0.762,6.238-3.781,6.238
	C375.559,225.683,375.018,224.11,375.018,222.588L375.018,222.588z"/>
<polygon fill="#4C565C" points="387.125,226.812 388.868,226.812 392.159,209.867 390.415,209.867 "/>
<path fill="#4C565C" d="M399.334,227.082c4.348,0,5.895-4.248,5.895-8.006c0-2.727-1.424-4.225-3.904-4.225
	c-4.52,0-6.018,4.42-6.018,7.933C395.307,225.781,397.002,227.082,399.334,227.082L399.334,227.082z M397.223,222.588
	c0-2.604,0.957-6.335,3.881-6.335c1.914,0,2.209,1.694,2.209,3.19c0,2.506-0.762,6.238-3.781,6.238
	C397.764,225.683,397.223,224.11,397.223,222.588L397.223,222.588z"/>
<path fill="#4C565C" d="M419.447,215.123h-1.742l-0.344,1.842h-0.049c-0.271-0.786-1.131-2.112-2.85-2.112
	c-3.414,0-5.084,4.494-5.084,7.883c0,2.383,1.057,4.076,2.872,4.076c2.089,0,3.048-1.326,3.513-2.062l0.051,0.049l-0.396,2.014
	c-0.489,2.333-1.397,3.414-4.223,3.414c-1.303,0-2.309-0.441-2.752-0.663l-0.318,1.67c0.369,0.073,1.548,0.394,3.07,0.394
	c4.199,0,5.402-2.038,5.967-4.813L419.447,215.123L419.447,215.123z M411.295,222.539c0-1.498,0.735-6.286,3.291-6.286
	c1.301,0,2.11,1.325,2.11,3.118c0,2.479-1.301,6.041-3.731,6.041C411.663,225.412,411.295,223.914,411.295,222.539L411.295,222.539z
	"/>
<path fill="#4C565C" d="M423.379,226.812h1.743l2.283-11.688h-1.744L423.379,226.812L423.379,226.812z M426.006,212.077h2.211
	l0.416-2.21h-2.209L426.006,212.077L426.006,212.077z"/>
<path fill="#4C565C" d="M439.295,225.364c-0.613,0.195-1.252,0.318-1.892,0.318c-2.651,0-3.83-1.302-3.83-3.954
	c0-0.59,0.099-1.228,0.222-1.816h6.776c0.146-0.54,0.246-1.154,0.246-1.743c0-1.94-1.475-3.315-3.635-3.315
	c-3.904,0-5.525,3.855-5.525,7.344c0,3.88,2.31,4.887,4.861,4.887c0.836,0,1.695-0.147,2.506-0.344L439.295,225.364L439.295,225.364
	z M434.113,218.536c0.369-0.908,1.08-2.283,2.974-2.283c1.227,0,1.987,0.712,1.987,1.841c0,0.147-0.022,0.295-0.049,0.442H434.113
	L434.113,218.536z"/>
<polygon fill="#4C565C" points="117.38,198.477 119.247,198.477 120.818,190.422 126.859,190.422 127.154,188.825 121.113,188.825 
	122.243,183.128 128.578,183.128 128.873,181.532 120.695,181.532 "/>
<path fill="#4C565C" d="M135.996,198.477h1.744l2.259-11.688h-1.744l-0.319,1.816h-0.049c-0.344-0.934-1.228-2.087-2.849-2.087
	c-3.537,0-5.157,4.788-5.157,8.177c0,2.358,1.032,4.054,3.144,4.054c2.038,0,2.774-1.253,3.29-2.21l0.051,0.049L135.996,198.477
	L135.996,198.477z M131.797,194.449c0-1.694,0.786-6.532,3.34-6.532c1.326,0,2.136,1.275,2.136,3.119
	c0,2.65-1.276,6.311-3.634,6.311C132.091,197.347,131.797,195.849,131.797,194.449L131.797,194.449z"/>
<path fill="#4C565C" d="M151.567,197.102c-0.613,0.147-1.252,0.245-1.891,0.245c-3.069,0-3.879-1.938-3.879-4.003
	c0-3.069,1.546-5.427,3.731-5.427c1.203,0,1.72,0.858,1.72,1.719c0,0.246-0.051,0.491-0.074,0.713h2.014
	c0.049-0.271,0.073-0.59,0.073-0.885c0-1.62-1.154-2.946-3.536-2.946c-4.101,0-5.845,3.953-5.845,7.317
	c0,3.561,2.112,4.912,5.083,4.912c0.786,0,1.572-0.147,2.333-0.319L151.567,197.102L151.567,197.102z"/>
<path fill="#4C565C" d="M156.185,198.477h1.744l0.761-3.979c0.491-2.505,1.892-6.36,4.347-6.36c0.811,0,1.351,0.54,1.351,1.4
	c0,0.54-0.098,1.375-0.196,1.964l-1.351,6.975h1.744l1.449-7.539c0.122-0.589,0.221-1.253,0.221-1.793
	c0-1.498-0.935-2.627-2.358-2.627c-2.308,0-3.266,1.399-4.125,2.651l-0.049-0.049l1.498-7.588h-1.743L156.185,198.477
	L156.185,198.477z"/>
<path fill="#4C565C" d="M169.6,203.731h1.744l1.351-7.071h0.05c0.344,0.934,1.228,2.088,2.849,2.088
	c3.561,0,5.157-4.789,5.157-8.179c0-2.356-1.007-4.052-3.145-4.052c-2.038,0-2.773,1.252-3.291,2.21l-0.049-0.05l0.369-1.891h-1.744
	L169.6,203.731L169.6,203.731z M173.357,194.229c0-2.651,1.252-6.312,3.635-6.312c1.547,0,1.842,1.498,1.842,2.896
	c0,1.694-0.786,6.532-3.364,6.532C174.167,197.347,173.357,196.07,173.357,194.229L173.357,194.229z"/>
<path fill="#4C565C" d="M184.41,198.477h1.743l0.835-4.321c0.368-2.015,1.18-5.846,5.011-5.846l0.344-1.792
	c-2.333,0-3.585,1.057-4.347,2.578l-0.05-0.049l0.468-2.26h-1.744L184.41,198.477L184.41,198.477z"/>
<path fill="#4C565C" d="M200.422,198.477h1.744l2.259-11.688h-1.743l-0.319,1.816h-0.049c-0.344-0.934-1.228-2.087-2.849-2.087
	c-3.537,0-5.157,4.788-5.157,8.177c0,2.358,1.031,4.054,3.144,4.054c2.037,0,2.774-1.253,3.291-2.21l0.05,0.049L200.422,198.477
	L200.422,198.477z M196.223,194.449c0-1.694,0.786-6.532,3.34-6.532c1.326,0,2.138,1.275,2.138,3.119
	c0,2.65-1.277,6.311-3.636,6.311C196.518,197.347,196.223,195.849,196.223,194.449L196.223,194.449z"/>
<polygon fill="#4C565C" points="206.343,198.477 208.503,198.477 212.605,193.811 214.962,198.477 216.829,198.477 213.783,192.387 
	218.67,186.787 216.509,186.787 212.998,190.865 210.984,186.787 209.093,186.787 211.868,192.288 "/>
<path fill="#4C565C" d="M221.174,198.477h1.744l2.283-11.688h-1.744L221.174,198.477L221.174,198.477z M223.801,183.742h2.211
	l0.418-2.21h-2.211L223.801,183.742L223.801,183.742z"/>
<path fill="#4C565C" d="M237.018,187.058c-0.418-0.146-1.449-0.54-3.021-0.54c-1.965,0-4.297,0.884-4.297,3.462
	c0,3.096,4.715,3.219,4.715,5.28c0,1.571-1.67,2.087-3.119,2.087c-1.252,0-2.43-0.417-2.945-0.663l-0.32,1.621
	c0.492,0.123,1.597,0.442,3.193,0.442c2.504,0,4.984-1.081,4.984-3.954c0-3.118-4.715-3.241-4.715-5.183
	c0-1.153,1.178-1.693,2.432-1.693c1.154,0,2.309,0.441,2.775,0.639L237.018,187.058L237.018,187.058z"/>
<path fill="#4C565C" d="M247.924,198.477h1.744l1.987-10.313h3.316l0.271-1.375h-3.314l0.244-1.252
	c0.246-1.375,0.664-2.873,2.774-2.873c0.763,0,1.4,0.172,1.843,0.294l0.27-1.475c-0.563-0.146-1.274-0.221-1.891-0.221
	c-3.314,0-4.248,1.743-4.738,4.347l-0.246,1.18h-1.94l-0.271,1.375h1.941L247.924,198.477L247.924,198.477z"/>
<path fill="#4C565C" d="M260.498,184.479h2.162l0.418-2.16h-2.162L260.498,184.479L260.498,184.479z M264.846,184.479h2.16
	l0.418-2.16h-2.16L264.846,184.479L264.846,184.479z M263.543,198.477h1.744l2.334-11.688h-1.744l-0.812,3.979
	c-0.489,2.505-1.891,6.36-4.321,6.36c-0.785,0-1.351-0.54-1.351-1.375c0-0.565,0.072-1.4,0.195-1.989l1.375-6.975h-1.742
	l-1.475,7.539c-0.123,0.59-0.222,1.253-0.222,1.793c0,1.498,0.935,2.628,2.357,2.628c2.283,0,3.217-1.4,4.076-2.652l0.049,0.049
	L263.543,198.477L263.543,198.477z"/>
<path fill="#4C565C" d="M271.408,198.477h1.743l0.836-4.321c0.367-2.015,1.179-5.846,5.011-5.846l0.344-1.792
	c-2.334,0-3.586,1.057-4.348,2.578l-0.05-0.049l0.468-2.26h-1.744L271.408,198.477L271.408,198.477z"/>
<polygon fill="#4C565C" points="287.08,198.477 295.453,198.477 295.723,197.102 289.438,197.102 297.223,188.162 297.492,186.787 
	289.781,186.787 289.512,188.162 295.184,188.162 287.35,197.102 "/>
<path fill="#4C565C" d="M306.559,198.477h1.742l2.26-11.688h-1.744l-0.318,1.816h-0.049c-0.344-0.934-1.229-2.087-2.85-2.087
	c-3.535,0-5.156,4.788-5.156,8.177c0,2.358,1.031,4.054,3.144,4.054c2.039,0,2.774-1.253,3.291-2.21l0.049,0.049L306.559,198.477
	L306.559,198.477z M302.359,194.449c0-1.694,0.785-6.532,3.341-6.532c1.325,0,2.135,1.275,2.135,3.119
	c0,2.65-1.275,6.311-3.633,6.311C302.652,197.347,302.359,195.849,302.359,194.449L302.359,194.449z"/>
<path fill="#4C565C" d="M314.221,198.477h1.744l0.762-3.979c0.49-2.505,1.891-6.36,4.346-6.36c0.812,0,1.353,0.54,1.353,1.4
	c0,0.54-0.099,1.375-0.197,1.964l-1.35,6.975h1.741l1.449-7.539c0.123-0.589,0.221-1.253,0.221-1.793
	c0-1.498-0.932-2.627-2.356-2.627c-2.307,0-3.266,1.399-4.125,2.651l-0.049-0.049l1.498-7.588h-1.744L314.221,198.477
	L314.221,198.477z"/>
<path fill="#4C565C" d="M328.57,198.477h1.742l0.762-3.979c0.49-2.505,1.892-6.36,4.347-6.36c0.811,0,1.352,0.54,1.352,1.4
	c0,0.54-0.098,1.375-0.221,1.964l-1.353,6.975h1.744l1.476-7.539c0.098-0.589,0.221-1.253,0.221-1.793
	c0-1.498-0.935-2.627-2.357-2.627c-2.309,0-3.268,1.399-4.127,2.651l-0.049-0.049l0.467-2.333h-1.744L328.57,198.477L328.57,198.477
	z"/>
<path fill="#4C565C" d="M346.135,184.479h2.16l0.418-2.16h-2.16L346.135,184.479L346.135,184.479z M350.48,184.479h2.162l0.418-2.16
	h-2.162L350.48,184.479L350.48,184.479z M349.131,198.477h1.744l2.258-11.688h-1.742l-0.32,1.816h-0.049
	c-0.344-0.934-1.229-2.087-2.848-2.087c-3.537,0-5.158,4.788-5.158,8.177c0,2.358,1.031,4.054,3.145,4.054
	c2.037,0,2.773-1.253,3.289-2.21l0.051,0.049L349.131,198.477L349.131,198.477z M344.932,194.449c0-1.694,0.785-6.532,3.34-6.532
	c1.326,0,2.137,1.275,2.137,3.119c0,2.65-1.276,6.311-3.635,6.311C345.227,197.347,344.932,195.849,344.932,194.449L344.932,194.449
	z"/>
<path fill="#4C565C" d="M356.795,198.477h1.741l0.836-4.321c0.367-2.015,1.179-5.846,5.011-5.846l0.344-1.792
	c-2.334,0-3.586,1.057-4.348,2.578l-0.05-0.049l0.468-2.26h-1.744L356.795,198.477L356.795,198.477z"/>
<polygon fill="#4C565C" points="365.391,198.477 373.764,198.477 374.034,197.102 367.747,197.102 375.532,188.162 375.803,186.787 
	368.092,186.787 367.822,188.162 373.493,188.162 365.659,197.102 "/>
<path fill="#4C565C" d="M384.45,197.199c-0.366,0.099-0.762,0.146-1.129,0.146c-1.031,0-1.571-0.467-1.571-1.375
	c0-0.442,0.221-1.547,0.368-2.309l1.058-5.501h3.117l0.27-1.375h-3.117l0.711-3.782l-1.938,1.057l-0.517,2.727h-1.891l-0.27,1.375
	h1.891l-1.277,6.605c-0.098,0.491-0.172,1.007-0.172,1.498c0,2.333,1.939,2.48,3.021,2.48c0.395,0,0.786-0.051,1.153-0.123
	L384.45,197.199L384.45,197.199z"/>
<polygon fill="#4C565C" points="389.018,198.477 390.762,198.477 394.053,181.532 392.309,181.532 "/>
<path fill="#4C565C" d="M397.004,198.477h1.743l2.283-11.688h-1.744L397.004,198.477L397.004,198.477z M399.631,183.742h2.211
	l0.416-2.21h-2.209L399.631,183.742L399.631,183.742z"/>
<path fill="#4C565C" d="M412.773,197.102c-0.613,0.147-1.252,0.245-1.891,0.245c-3.07,0-3.881-1.938-3.881-4.003
	c0-3.069,1.547-5.427,3.731-5.427c1.203,0,1.721,0.858,1.721,1.719c0,0.246-0.051,0.491-0.073,0.713h2.014
	c0.049-0.271,0.072-0.59,0.072-0.885c0-1.62-1.152-2.946-3.535-2.946c-4.103,0-5.844,3.953-5.844,7.317
	c0,3.561,2.11,4.912,5.082,4.912c0.786,0,1.571-0.147,2.334-0.319L412.773,197.102L412.773,197.102z"/>
<path fill="#4C565C" d="M417.391,198.477h1.744l0.762-3.979c0.49-2.505,1.891-6.36,4.346-6.36c0.812,0,1.353,0.54,1.353,1.4
	c0,0.54-0.099,1.375-0.197,1.964l-1.35,6.975h1.741l1.449-7.539c0.123-0.589,0.224-1.253,0.224-1.793
	c0-1.498-0.935-2.627-2.359-2.627c-2.307,0-3.266,1.399-4.125,2.651l-0.049-0.049l1.498-7.588h-1.744L417.391,198.477
	L417.391,198.477z"/>
<path fill="#4C565C" d="M439.622,197.027c-0.612,0.197-1.252,0.319-1.891,0.319c-2.652,0-3.832-1.302-3.832-3.953
	c0-0.59,0.098-1.229,0.221-1.816h6.779c0.146-0.54,0.244-1.154,0.244-1.744c0-1.939-1.473-3.314-3.635-3.314
	c-3.904,0-5.525,3.855-5.525,7.342c0,3.882,2.31,4.889,4.863,4.889c0.836,0,1.692-0.147,2.504-0.346L439.622,197.027
	L439.622,197.027z M434.441,190.2c0.367-0.908,1.08-2.283,2.971-2.283c1.229,0,1.99,0.712,1.99,1.842
	c0,0.147-0.024,0.295-0.051,0.441H434.441L434.441,190.2z"/>
<path fill="#006FB9" d="M117.766,167.808h4.771c7.243,0,10.27-5.905,10.27-13.469c0-4.742-2.443-6.604-6.633-6.604h-4.48
	L117.766,167.808L117.766,167.808z M123.526,149.626h1.658c2.909,0,5.179,0.669,5.179,4.713c0,6.226-2.182,11.578-7.447,11.578
	h-2.561L123.526,149.626L123.526,149.626z"/>
<path fill="#006FB9" d="M138.659,167.808h2.211l1.744-8.872h1.484c3.403,0,4.189,0.669,4.306,4.247l0.117,4.625h2.223l-0.146-5.411
	c-0.058-2.764-0.614-3.84-2.571-4.422v-0.058c2.938-0.378,5.002-2.153,5.002-5.818c0-3.84-2.957-4.364-6.397-4.364h-4.073
	L138.659,167.808L138.659,167.808z M144.419,149.626h1.92c2.649,0,4.362,0.522,4.362,2.764c0,3.812-2.85,4.654-6.079,4.654h-1.658
	L144.419,149.626L144.419,149.626z"/>
<polygon fill="#006FB9" stroke="#006FB9" stroke-width="0.2268" stroke-miterlimit="3.8637" points="157.511,167.808 
	160.391,167.808 160.973,164.928 158.093,164.928 "/>
<path fill="#006FB9" d="M191.9,147.968c-0.756-0.204-2.124-0.553-4.188-0.553c-4.829,0-7.36,2.502-7.36,5.729
	c0,4.713,7.709,5.354,7.709,9.164c0,2.589-2.589,3.927-5.266,3.927c-2.094,0-4.015-0.813-4.654-1.075l-0.437,2.326
	c0.553,0.146,2.269,0.642,4.538,0.642c5.236,0,8.145-2.502,8.145-6.371c0-5.324-7.708-5.44-7.708-9.135
	c0-2.096,1.862-3.316,4.451-3.316c1.979,0,3.549,0.642,4.334,0.989L191.9,147.968L191.9,147.968z"/>
<polygon fill="#006FB9" points="199.233,167.808 201.444,167.808 204.993,149.626 209.793,149.626 210.171,147.734 198.302,147.734 
	197.953,149.626 202.753,149.626 "/>
<polygon fill="#006FB9" points="212.941,167.808 222.918,167.808 223.268,165.917 215.529,165.917 217.014,158.266 224.17,158.266 
	224.52,156.375 217.392,156.375 218.701,149.626 226.205,149.626 226.584,147.734 216.868,147.734 "/>
<polygon fill="#006FB9" points="230.604,167.808 232.814,167.808 234.678,158.266 241.832,158.266 242.182,156.375 235.025,156.375 
	236.363,149.626 243.869,149.626 244.219,147.734 234.531,147.734 "/>
<path fill="#006FB9" d="M244.977,167.808h2.299l3.084-6.167h7.33l0.756,6.167h2.183l-2.588-20.073h-2.734L244.977,167.808
	L244.977,167.808z M256.264,149.771h0.059l1.164,9.979h-6.196L256.264,149.771L256.264,149.771z"/>
<polygon fill="#006FB9" points="267.549,167.808 269.76,167.808 273.018,150.906 273.076,150.906 278.109,167.808 280.932,167.808 
	284.859,147.734 282.648,147.734 279.273,165.016 279.215,165.016 274.299,147.734 271.477,147.734 "/>
<polygon fill="#006FB9" points="300.195,167.808 302.406,167.808 304.326,157.975 310.232,167.808 312.822,167.808 306.625,157.451 
	316.109,147.734 313.375,147.734 304.588,156.841 304.531,156.782 306.334,147.734 304.123,147.734 "/>
<path fill="#006FB9" d="M325.355,145h2.559l0.494-2.561h-2.559L325.355,145L325.355,145z M330.504,145h2.561l0.494-2.561h-2.562
	L330.504,145L330.504,145z M325.907,168.128c6.836,0,9.133-8.117,9.133-14.08c0-3.403-1.135-6.633-5.555-6.633
	c-6.953,0-9.311,7.884-9.311,13.876C320.176,165.044,321.34,168.128,325.907,168.128L325.907,168.128z M322.618,161.35
	c0-2.938,1.021-12.044,6.4-12.044c3.258,0,3.578,3.025,3.578,4.945c0,2.677-0.931,11.984-6.486,11.984
	C323.145,166.236,322.618,163.153,322.618,161.35L322.618,161.35z"/>
<polygon fill="#006FB9" points="340.92,167.808 343.131,167.808 346.389,150.906 346.447,150.906 351.48,167.808 354.301,167.808 
	358.229,147.734 356.018,147.734 352.643,165.016 352.584,165.016 347.668,147.734 344.848,147.734 "/>
<polygon fill="#006FB9" points="363.645,167.808 365.855,167.808 369.754,147.734 367.543,147.734 "/>
<path fill="#006FB9" d="M390.206,156.491h-6.864l-0.379,1.891h4.653l-1.366,6.837c-0.554,0.407-1.63,1.018-3.607,1.018
	c-3.869,0-4.334-3.024-4.334-5.585c0-4.857,2.123-11.346,6.662-11.346c2.354,0,3.52,1.513,3.52,2.996
	c0,0.35-0.059,0.641-0.146,0.902h2.59c0.088-0.378,0.146-0.641,0.146-1.02c0-2.646-2.211-4.771-5.877-4.771
	c-6.604,0-9.338,7.127-9.338,13.526c0,4.16,1.688,7.187,6.371,7.187c3.258,0,5.353-1.311,6.051-1.833L390.206,156.491
	L390.206,156.491z"/>
<path fill="#006FB9" stroke="#006FB9" stroke-miterlimit="10" d="M45.746,209.539c-14.436-2.867-28.501-7.452-41.285-14.743
	c-0.49-3.977-0.931-7.957-1.324-11.943c13.224,5.908,27.392,9.37,41.773,11.42C45.165,199.366,45.444,204.455,45.746,209.539
	L45.746,209.539z M45.907,43.959C30.752,49.673,16.34,57.288,3.695,67.484c0.395-3.53,0.828-7.058,1.306-10.58
	c12.358-11.039,26.678-19.459,41.924-25.731C46.557,35.431,46.218,39.693,45.907,43.959L45.907,43.959z M44.638,64.153
	c-14.932,4.721-29.384,10.945-42.47,19.534c0.299-3.825,0.639-7.645,1.022-11.462c12.773-9.764,27.21-16.988,42.308-22.425
	C45.178,54.581,44.892,59.366,44.638,64.153L44.638,64.153z M43.662,87.397c-14.628,3.501-29.015,8.031-42.597,14.409
	c0.183-4.073,0.407-8.145,0.677-12.213c13.249-7.915,27.688-13.6,42.524-17.93C44.028,76.906,43.826,82.15,43.662,87.397
	L43.662,87.397z M43.155,112.04c-14.335,2.208-28.597,4.903-42.613,8.562c0.052-4.243,0.147-8.484,0.289-12.727
	c13.737-5.545,28.085-9.488,42.611-12.571C43.306,100.881,43.211,106.46,43.155,112.04L43.155,112.04z M43.159,137.209
	c-14.173,0.925-28.352,1.745-42.54,2.352c-0.085-4.321-0.125-8.646-0.119-12.969c14.109-2.719,28.336-4.823,42.601-6.623
	C43.081,125.716,43.101,131.463,43.159,137.209L43.159,137.209z M43.655,162.593c-14.202-0.37-28.387-1.449-42.339-3.934
	c-0.226-4.304-0.405-8.608-0.54-12.916c14.157,0.409,28.33,0.204,42.491-0.304C43.361,151.16,43.491,156.878,43.655,162.593
	L43.655,162.593z M44.533,186.337c-14.338-1.623-28.527-4.491-41.963-9.605c-0.359-4.188-0.671-8.383-0.937-12.579
	c13.817,3.324,28.01,4.949,42.249,5.698C44.069,175.35,44.287,180.846,44.533,186.337L44.533,186.337z"/>
<path fill="#A5AEB4" d="M81.973,196.741c-9.069-0.345-18.106-1.116-27.03-2.204c-0.227-5.934-0.424-11.866-0.595-17.801
	c7.64,0.57,15.325,0.98,23.026,1.182C77.951,184.485,79.53,190.8,81.973,196.741L81.973,196.741z M135.305,6.201
	c0.937,3.514,1.795,7.046,2.597,10.593c-26.478-9.198-55.581-5.985-81.801,2.476c0.235-3.811,0.491-7.621,0.775-11.429
	C82.01-0.736,110.086-3.666,135.305,6.201L135.305,6.201z M138.991,21.821c0.885,4.259,1.693,8.531,2.439,12.816
	c-28.202-7.84-58.534-4.448-86.32,3.484c0.202-4.5,0.426-8.999,0.677-13.496C82.478,16.276,111.983,12.979,138.991,21.821
	L138.991,21.821z M142.581,41.588c0.786,5.011,1.495,10.033,2.137,15.063c-29.83-5.871-61.062-2.618-90.436,4.239
	c0.15-5.178,0.325-10.354,0.526-15.532C83.134,37.724,113.812,34.34,142.581,41.588L142.581,41.588z M145.656,64.458
	c0.639,5.653,1.198,11.316,1.688,16.985c-31.127-3.376-62.849-0.579-93.611,4.657c0.087-5.744,0.198-11.488,0.336-17.23
	C83.928,62.482,115.359,59.345,145.656,64.458L145.656,64.458z M148.004,89.696c0.294,4.02,0.555,8.039,0.783,12.062
	c-9.333,0.786-18.194,3.021-26.302,6.452c-23.039,0.606-46.062,2.341-68.977,4.619c0.013-6.138,0.051-12.273,0.116-18.409
	C84.752,89.797,116.564,87.198,148.004,89.696L148.004,89.696z M85.962,139.729c-10.773,0.41-21.549,0.728-32.324,0.979
	c-0.069-6.313-0.111-12.627-0.126-18.94c17.066-1.283,34.152-2.412,51.25-3.265C97.073,124.408,90.665,131.61,85.962,139.729
	L85.962,139.729z M77.249,168.321c-7.73-0.089-15.45-0.346-23.143-0.729c-0.147-6.248-0.269-12.497-0.362-18.746
	c9.312-0.011,18.632-0.11,27.95-0.334C79.208,154.757,77.674,161.407,77.249,168.321L77.249,168.321z"/>
</svg>
